<?xml version="1.0" encoding="utf-8"?>
<!-- Generator: Adobe Illustrator 19.1.0, SVG Export Plug-In . SVG Version: 6.00 Build 0)  -->
<svg version="1.1" id="Layer_1" xmlns="http://www.w3.org/2000/svg" xmlns:xlink="http://www.w3.org/1999/xlink" x="0px" y="0px"
	 viewBox="0 0 172.7 33.5" style="enable-background:new 0 0 172.7 33.5;" xml:space="preserve">
<style type="text/css">
	.st0{fill:#000000;}
	.st1{enable-background:new    ;}
</style>
<path class="st0" d="M87.7,7.8c-5.1,0-9.3,4.1-9.3,9.3s4.1,9.3,9.3,9.3c5.1,0,9.3-4.1,9.3-9.3S92.8,7.8,87.7,7.8z M90.9,20.5
	c-0.5,0-1.1-0.2-1.6-0.5c-0.4-0.3-0.7-0.7-1-1c-0.1-0.1-0.1-0.1-0.1-0.1l-0.1-0.1l0.8-1.1l0.1,0.1c0.3,0.4,0.6,0.8,1,1.1
	c0.3,0.2,0.7,0.3,0.9,0.3l0,0c0.5,0,1.1-0.3,1.5-0.7c0.4-0.4,0.6-0.9,0.6-1.5c0-0.5-0.2-1.1-0.6-1.5c-0.4-0.3-0.9-0.6-1.5-0.6l0,0
	c-0.2,0-0.4,0.1-0.7,0.3c-0.3,0.2-0.6,0.5-0.9,0.8c-0.2,0.2-0.6,0.7-1,1.2s-0.7,1-0.8,1c-0.4,0.5-0.9,1.1-1.5,1.5
	c-0.4,0.3-1,0.5-1.6,0.5c-1.9,0-3.3-1.5-3.3-3.3s1.5-3.3,3.3-3.3c0.5,0,1.1,0.2,1.6,0.5c0.4,0.3,0.7,0.7,1,1c0.1,0.1,0,0,0.1,0.1
	l0.1,0.1l-0.8,1.1l-0.1-0.1c-0.3-0.4-0.7-0.8-1.1-1.1c-0.3-0.2-0.6-0.3-0.8-0.3l0,0c-0.5,0-1.1,0.3-1.5,0.6
	c-0.4,0.4-0.6,0.9-0.6,1.5s0.2,1.1,0.6,1.5s0.9,0.7,1.4,0.7l0,0c0.2,0,0.5-0.1,0.8-0.3c0.3-0.2,0.5-0.5,0.8-0.8
	c0.2-0.2,0.6-0.7,1-1.2s0.7-1,0.8-1c0.4-0.5,0.9-1.1,1.5-1.5c0.4-0.3,1-0.5,1.6-0.5V14v-0.1c1.7,0,3.3,1.5,3.3,3.3
	C94.3,19,92.8,20.5,90.9,20.5z"/>
<g>
	<g>
		<path class="st0" d="M104.6,21.5c-0.7,0-1.4-0.1-2.1-0.4c-0.7-0.2-1.3-0.6-1.9-1.1l1.2-1.4c0.4,0.3,0.9,0.6,1.3,0.8
			c0.4,0.2,0.9,0.3,1.5,0.3c0.4,0,0.8-0.1,1-0.2c0.2-0.2,0.3-0.4,0.3-0.7l0,0c0-0.1,0-0.3-0.1-0.3c-0.1-0.1-0.2-0.2-0.3-0.3
			c-0.1-0.1-0.3-0.2-0.5-0.3c-0.2-0.1-0.5-0.2-0.9-0.3c-0.5-0.1-0.9-0.2-1.3-0.4c-0.4-0.2-0.7-0.3-1-0.5s-0.5-0.4-0.6-0.8
			c-0.1-0.3-0.2-0.7-0.2-1.1l0,0c0-0.4,0.1-0.8,0.2-1.1c0.2-0.3,0.4-0.6,0.7-0.9c0.3-0.2,0.6-0.4,1-0.5s0.8-0.2,1.3-0.2
			c0.7,0,1.3,0.1,1.9,0.3c0.5,0.2,1.1,0.5,1.5,0.9l-1,1.5c-0.4-0.3-0.8-0.5-1.2-0.7s-0.8-0.2-1.2-0.2s-0.7,0.1-0.9,0.2
			c-0.2,0.2-0.3,0.3-0.3,0.5l0,0c0,0.2,0.1,0.3,0.1,0.4c0.1,0.1,0.2,0.2,0.3,0.3c0.2,0.1,0.3,0.2,0.6,0.3s0.6,0.2,1,0.3
			c0.5,0.1,0.9,0.3,1.3,0.4c0.4,0.1,0.7,0.3,0.9,0.5c0.3,0.2,0.4,0.5,0.5,0.8s0.2,0.7,0.2,1l0,0c0,0.4-0.1,0.9-0.3,1.2
			c-0.2,0.3-0.4,0.7-0.7,0.9c-0.3,0.2-0.7,0.4-1,0.5C105.6,21.5,105.1,21.5,104.6,21.5z"/>
		<path class="st0" d="M108.5,11.9h2v3.5c0.1-0.2,0.2-0.3,0.4-0.4c0.1-0.1,0.3-0.3,0.4-0.4c0.2-0.1,0.3-0.2,0.5-0.3s0.4-0.1,0.7-0.1
			c0.8,0,1.4,0.2,1.7,0.7c0.4,0.4,0.6,1.1,0.6,1.9v4.5h-2v-3.9c0-0.5-0.1-0.8-0.3-1.1c-0.2-0.2-0.5-0.4-0.9-0.4s-0.7,0.1-0.9,0.4
			c-0.2,0.2-0.3,0.6-0.3,1.1v3.9h-2L108.5,11.9L108.5,11.9z"/>
		<path class="st0" d="M119.2,21.6c-0.5,0-1-0.1-1.5-0.3c-0.4-0.2-0.9-0.4-1.2-0.8c-0.3-0.3-0.6-0.7-0.8-1.1s-0.3-0.9-0.3-1.4l0,0
			c0-0.5,0.1-1,0.3-1.4s0.4-0.8,0.8-1.1c0.3-0.3,0.8-0.6,1.2-0.8c0.4-0.2,1-0.3,1.5-0.3s1,0.1,1.5,0.3c0.4,0.2,0.9,0.4,1.2,0.8
			c0.3,0.3,0.6,0.7,0.8,1.1s0.3,0.9,0.3,1.4l0,0c0,0.5-0.1,1-0.3,1.4s-0.4,0.8-0.8,1.1c-0.3,0.3-0.8,0.6-1.2,0.8
			S119.8,21.6,119.2,21.6z M119.2,19.8c0.3,0,0.5-0.1,0.8-0.2c0.2-0.1,0.4-0.2,0.5-0.4c0.1-0.2,0.3-0.4,0.4-0.6
			c0.1-0.2,0.1-0.5,0.1-0.8l0,0c0-0.3-0.1-0.5-0.1-0.8c-0.1-0.2-0.2-0.4-0.4-0.6s-0.4-0.3-0.6-0.4s-0.5-0.2-0.8-0.2
			s-0.5,0.1-0.8,0.2c-0.2,0.1-0.4,0.2-0.5,0.4c-0.2,0.2-0.3,0.4-0.4,0.6c-0.1,0.2-0.1,0.5-0.1,0.8l0,0c0,0.3,0.1,0.5,0.1,0.8
			c0.1,0.2,0.2,0.4,0.4,0.6s0.4,0.3,0.6,0.4C118.7,19.8,119,19.8,119.2,19.8z"/>
		<path class="st0" d="M123.7,14.3h2v1c0.2-0.3,0.5-0.6,0.9-0.8c0.4-0.2,0.8-0.3,1.3-0.3c0.4,0,0.8,0.1,1.2,0.2
			c0.4,0.2,0.7,0.4,1,0.7c0.3,0.3,0.5,0.7,0.7,1.1s0.3,1,0.3,1.5l0,0c0,0.6-0.1,1.1-0.3,1.5s-0.4,0.8-0.7,1.1
			c-0.3,0.3-0.7,0.5-1,0.7c-0.4,0.2-0.8,0.2-1.2,0.2c-0.5,0-1-0.1-1.3-0.3c-0.3-0.2-0.7-0.4-0.9-0.7v3.1h-2V14.3z M127.3,19.8
			c0.2,0,0.4-0.1,0.7-0.2c0.2-0.1,0.4-0.2,0.5-0.4c0.2-0.2,0.3-0.4,0.4-0.6c0.1-0.2,0.2-0.5,0.2-0.8l0,0c0-0.3-0.1-0.5-0.2-0.8
			c-0.1-0.2-0.2-0.4-0.4-0.6s-0.3-0.3-0.5-0.4s-0.4-0.2-0.7-0.2s-0.4,0.1-0.7,0.2c-0.2,0.1-0.4,0.2-0.5,0.4
			c-0.2,0.2-0.3,0.4-0.4,0.6s-0.2,0.5-0.2,0.8l0,0c0,0.3,0.1,0.5,0.2,0.8c0.1,0.2,0.2,0.4,0.4,0.6s0.3,0.3,0.5,0.4
			C126.9,19.8,127.1,19.8,127.3,19.8z"/>
		<path class="st0" d="M131.7,14.3h2v1c0.1-0.2,0.2-0.3,0.4-0.4c0.1-0.1,0.3-0.3,0.4-0.4c0.2-0.1,0.3-0.2,0.5-0.3s0.4-0.1,0.7-0.1
			c0.4,0,0.9,0.1,1.2,0.3c0.3,0.2,0.6,0.5,0.8,0.8c0.3-0.4,0.7-0.7,1-0.8c0.4-0.2,0.8-0.3,1.3-0.3c0.8,0,1.3,0.2,1.7,0.7
			c0.4,0.4,0.7,1.1,0.7,1.9v4.6h-2v-3.8c0-0.5-0.1-0.8-0.3-1.1c-0.2-0.2-0.5-0.4-0.9-0.4s-0.7,0.1-0.9,0.4c-0.2,0.2-0.3,0.6-0.3,1.1
			v3.9h-2v-3.9c0-0.5-0.1-0.8-0.3-1.1c-0.2-0.2-0.5-0.4-0.9-0.4s-0.7,0.1-0.9,0.4c-0.2,0.2-0.3,0.6-0.3,1.1v3.9h-2L131.7,14.3
			L131.7,14.3z"/>
		<path class="st0" d="M145.3,21.5c-0.3,0-0.7-0.1-0.9-0.2c-0.3-0.1-0.5-0.2-0.8-0.4c-0.2-0.2-0.4-0.4-0.5-0.7
			c-0.1-0.3-0.2-0.6-0.2-0.9l0,0c0-0.4,0.1-0.7,0.2-1c0.2-0.3,0.3-0.5,0.6-0.7s0.5-0.3,0.9-0.4c0.3-0.1,0.7-0.2,1.1-0.2
			s0.7,0,0.9,0.1c0.3,0.1,0.5,0.1,0.8,0.2v-0.2c0-0.4-0.1-0.8-0.4-1s-0.7-0.3-1.1-0.3c-0.4,0-0.7,0.1-1,0.1
			c-0.3,0.1-0.6,0.2-0.9,0.3l-0.5-1.5c0.4-0.2,0.8-0.3,1.2-0.4s0.9-0.2,1.5-0.2c0.5,0,1,0.1,1.4,0.2s0.7,0.3,1,0.6
			c0.3,0.3,0.4,0.6,0.6,1c0.1,0.4,0.2,0.8,0.2,1.3v4.1h-1.9v-0.8c-0.2,0.3-0.5,0.5-0.9,0.7C146.3,21.3,145.8,21.5,145.3,21.5z
			 M146,20.1c0.5,0,0.9-0.1,1.1-0.3c0.3-0.2,0.4-0.5,0.4-0.9v-0.3c-0.2-0.1-0.4-0.2-0.6-0.2c-0.2-0.1-0.4-0.1-0.7-0.1
			c-0.4,0-0.8,0.1-1,0.3s-0.4,0.4-0.4,0.7l0,0c0,0.3,0.1,0.5,0.3,0.7C145.4,20.1,145.6,20.1,146,20.1z"/>
		<path class="st0" d="M152.6,21.5c-0.3,0-0.6-0.1-0.8-0.1c-0.3-0.1-0.4-0.2-0.7-0.3c-0.2-0.2-0.3-0.4-0.4-0.7s-0.2-0.6-0.2-1v-3.3
			h-0.8v-1.7h0.8v-1.8h2v1.8h1.6v1.7h-1.6v3c0,0.4,0.2,0.7,0.7,0.7c0.3,0,0.7-0.1,1-0.3v1.6c-0.2,0.1-0.4,0.2-0.7,0.3
			C153.3,21.5,153,21.5,152.6,21.5z"/>
		<path class="st0" d="M155,11.9h2.1v1.7H155V11.9z M155,14.3h2v7h-2V14.3z"/>
		<path class="st0" d="M161.1,21.6c-0.5,0-1-0.1-1.5-0.3c-0.4-0.2-0.8-0.4-1.1-0.8c-0.3-0.3-0.6-0.7-0.8-1.1s-0.3-0.9-0.3-1.4l0,0
			c0-0.5,0.1-1,0.3-1.4s0.4-0.8,0.8-1.1c0.3-0.3,0.7-0.6,1.1-0.8c0.4-0.2,0.9-0.3,1.5-0.3c0.7,0,1.2,0.1,1.6,0.3
			c0.4,0.2,0.8,0.5,1.1,0.9l-1.2,1.3c-0.2-0.2-0.4-0.4-0.7-0.5c-0.2-0.2-0.5-0.2-0.9-0.2c-0.3,0-0.5,0.1-0.7,0.2s-0.4,0.2-0.5,0.4
			c-0.2,0.2-0.3,0.4-0.3,0.6c-0.1,0.2-0.1,0.5-0.1,0.8l0,0c0,0.3,0.1,0.5,0.1,0.8c0.1,0.2,0.2,0.4,0.4,0.6s0.3,0.3,0.5,0.4
			s0.4,0.2,0.7,0.2s0.6-0.1,0.9-0.2s0.5-0.3,0.8-0.5l1.1,1.2c-0.3,0.4-0.7,0.7-1.1,0.9C162.4,21.6,161.8,21.6,161.1,21.6z"/>
	</g>
	<polygon class="st0" points="159.7,8.6 160.1,9.5 161.1,9.6 160.4,10.3 160.5,11.3 159.7,10.8 158.8,11.3 159,10.3 158.3,9.6
		159.3,9.5 	"/>
	<polygon class="st0" points="150.4,5.9 151,7.1 152.4,7.3 151.4,8.3 151.7,9.8 150.4,9.1 149.2,9.8 149.4,8.3 148.3,7.3 149.8,7.1
			"/>
</g>
<g class="st1">
	<path class="st0" d="M11.6,21v-8h3.2c1.6,0,2.5,1.1,2.5,2.4s-0.9,2.4-2.5,2.4h-2.2V21H11.6z M16.3,15.3c0-0.9-0.6-1.5-1.6-1.5h-2.1
		v3h2.1C15.7,16.9,16.3,16.3,16.3,15.3z"/>
</g>
<g class="st1">
	<path class="st0" d="M18.1,18.1c0-1.7,1.1-3,2.9-3s2.9,1.4,2.9,3s-1.1,3-2.9,3S18.1,19.6,18.1,18.1z M22.9,18.1
		c0-1.2-0.7-2.2-1.9-2.2c-1.2,0-1.9,1.1-1.9,2.2c0,1.2,0.7,2.2,1.9,2.2S22.9,19.1,22.9,18.1z"/>
	<path class="st0" d="M30.4,21l-1.5-4.7L27.4,21h-0.9l-1.8-5.8h0.9l1.4,4.6l1.5-4.6h0.8l1.5,4.6l1.4-4.6h0.9L31.3,21H30.4z"/>
	<path class="st0" d="M33.8,18.1c0-1.7,1.2-3,2.9-3c1.8,0,2.8,1.4,2.8,3.1v0.2h-4.7c0.1,1.1,0.8,2,2.1,2c0.7,0,1.3-0.3,1.8-0.7
		l0.4,0.6c-0.6,0.6-1.4,0.9-2.3,0.9C35.1,21.1,33.8,19.9,33.8,18.1z M36.7,15.8c-1.2,0-1.8,1-1.9,1.9h3.8
		C38.6,16.8,38,15.8,36.7,15.8z"/>
	<path class="st0" d="M40.9,21v-5.8h0.9v0.9c0.5-0.6,1.1-1.1,1.9-1.1v0.9c-0.1,0-0.2,0-0.3,0c-0.6,0-1.3,0.5-1.6,0.9v4.1L40.9,21
		L40.9,21z"/>
	<path class="st0" d="M44.5,18.1c0-1.7,1.2-3,2.9-3c1.8,0,2.8,1.4,2.8,3.1v0.2h-4.7c0.1,1.1,0.8,2,2.1,2c0.7,0,1.3-0.3,1.8-0.7
		l0.4,0.6c-0.6,0.6-1.4,0.9-2.3,0.9C45.8,21.1,44.5,19.9,44.5,18.1z M47.4,15.8c-1.2,0-1.8,1-1.9,1.9h3.8
		C49.3,16.8,48.7,15.8,47.4,15.8z"/>
	<path class="st0" d="M55.8,21v-0.9c-0.4,0.6-1.1,1-2,1c-1.5,0-2.6-1.2-2.6-3c0-1.9,1.1-3,2.6-3c0.8,0,1.5,0.4,2,1V13h0.9v8H55.8z
		 M55.8,19.3v-2.6c-0.3-0.5-1-0.9-1.7-0.9c-1.2,0-1.9,1-1.9,2.2s0.7,2.2,1.9,2.2C54.8,20.3,55.5,19.9,55.8,19.3z"/>
	<path class="st0" d="M61.6,21v-8h0.9v3.1c0.5-0.6,1.2-1,2-1c1.5,0,2.6,1.2,2.6,3c0,1.9-1.1,3-2.6,3c-0.8,0-1.5-0.4-2-1V21H61.6z
		 M64.3,20.3c1.2,0,1.9-0.9,1.9-2.2s-0.7-2.2-1.9-2.2c-0.7,0-1.4,0.4-1.7,0.9v2.6C62.8,19.9,63.6,20.3,64.3,20.3z"/>
	<path class="st0" d="M68.4,22.3c0.1,0.1,0.3,0.1,0.5,0.1c0.4,0,0.7-0.1,0.9-0.6l0.4-0.9L67.8,15h1l1.9,4.8l1.9-4.8h1l-2.9,7
		c-0.3,0.8-0.9,1.2-1.7,1.2c-0.2,0-0.5,0-0.6-0.1L68.4,22.3L68.4,22.3z"/>
</g>
</svg>
